<svg width="36" height="36" viewBox="0 0 36 36" fill="none" xmlns="http://www.w3.org/2000/svg">
<path d="M13.922 18C13.922 19.0443 14.3368 20.0458 15.0752 20.7842C15.8136 21.5227 16.8152 21.9375 17.8595 21.9375C18.9037 21.9375 19.9053 21.5227 20.6437 20.7842C21.3821 20.0458 21.797 19.0443 21.797 18C21.797 16.9557 21.3821 15.9542 20.6437 15.2158C19.9053 14.4773 18.9037 14.0625 17.8595 14.0625C16.8152 14.0625 15.8136 14.4773 15.0752 15.2158C14.3368 15.9542 13.922 16.9557 13.922 18V18ZM33.1243 17.093C29.7915 10.0723 24.7536 6.53906 18.0001 6.53906C11.243 6.53906 6.20867 10.0723 2.87586 17.0965C2.74218 17.3796 2.67285 17.6887 2.67285 18.0018C2.67285 18.3148 2.74218 18.624 2.87586 18.907C6.20867 25.9277 11.2466 29.4609 18.0001 29.4609C24.7571 29.4609 29.7915 25.9277 33.1243 18.9035C33.395 18.334 33.395 17.673 33.1243 17.093V17.093ZM17.8595 24.1875C14.4423 24.1875 11.672 21.4172 11.672 18C11.672 14.5828 14.4423 11.8125 17.8595 11.8125C21.2766 11.8125 24.047 14.5828 24.047 18C24.047 21.4172 21.2766 24.1875 17.8595 24.1875Z" fill="#FAF4F9"/>
</svg>
