<svg width="125" height="122" viewBox="0 0 125 122" fill="none" xmlns="http://www.w3.org/2000/svg">
<path d="M97.7143 26.6833C103.393 32.531 107.533 39.7038 109.759 47.5554H125V74.4267H109.759C107.535 82.2847 103.396 89.464 97.7143 95.3167L105.348 108.569L82.1518 122L74.5357 108.748C66.6385 110.745 58.3704 110.745 50.4732 108.748L42.8482 122L19.6518 108.569L27.2857 95.3167C21.604 89.464 17.4647 82.2847 15.2411 74.4267H0V47.5643H15.2411C17.4647 39.7063 21.604 32.5271 27.2857 26.6743L19.6429 13.4312L42.8304 0H42.8571L50.4821 13.2342C58.3793 11.2367 66.6475 11.2367 74.5446 13.2342L82.1429 0H82.1607L105.357 13.4312L97.7232 26.6833H97.7143ZM89.2857 60.9955C89.2857 53.8712 86.4637 47.0386 81.4404 42.0009C76.4171 36.9633 69.604 34.1331 62.5 34.1331C55.396 34.1331 48.5829 36.9633 43.5596 42.0009C38.5363 47.0386 35.7143 53.8712 35.7143 60.9955C35.7143 68.1199 38.5363 74.9524 43.5596 79.9901C48.5829 85.0278 55.396 87.8579 62.5 87.8579C69.604 87.8579 76.4171 85.0278 81.4404 79.9901C86.4637 74.9524 89.2857 68.1199 89.2857 60.9955V60.9955Z" fill="white"/>
</svg>
