<svg width="126" height="126" viewBox="0 0 126 126" fill="none" xmlns="http://www.w3.org/2000/svg">
<path d="M37.0299 2.66494C35.7195 3.52804 2.21737 37.0617 1.70707 37.9878C1.45129 38.4666 1.25977 39.4569 1.25977 40.1915C1.25977 41.5334 1.32403 41.5964 10.4263 50.7629C15.4726 55.8092 20.0716 60.1839 20.6776 60.4712C22.9129 61.5246 22.6256 61.7489 41.9162 42.491C59.1618 25.1811 59.7049 24.6066 59.7049 23.4562C59.7049 22.7859 59.5448 21.9228 59.3533 21.5397C58.8418 20.5494 41.5319 3.17524 40.4785 2.60068C39.3294 1.99462 37.9875 2.02612 37.0299 2.66494Z" fill="white"/>
<path d="M97.4547 9.21189C89.5986 10.4253 83.4977 14.6097 80.3363 21.0282C78.5484 24.6368 78.0053 27.0648 77.6223 33.3245C77.2078 39.84 76.7605 40.9891 73.1833 44.6947L70.4365 47.5373L78.0696 55.1704L85.7027 62.8035L88.4495 60.1524C92.0909 56.6395 93.3043 56.1922 99.6912 55.8092C105.088 55.4577 107.835 54.9146 110.677 53.574C113.104 52.3921 116.585 49.678 118.246 47.6973C121.376 43.9287 123.835 38.6278 124.537 34.2204C124.952 31.7293 124.76 30.9633 123.675 30.5475C122.972 30.2917 121.919 30.8032 114.637 34.9864C110.134 37.606 106.047 39.8412 105.567 39.9685C102.98 40.6073 99.2111 37.5732 97.0074 33.1342C94.8352 28.7268 94.7079 25.9485 96.6559 24.1593C97.1662 23.712 100.648 21.5725 104.416 19.4003C114.253 13.7794 113.741 14.1309 113.614 12.9176C113.55 12.0557 113.295 11.7672 112.081 11.1926C108.632 9.46767 101.766 8.54157 97.4547 9.21189Z" fill="white"/>
<path d="M46.1638 47.473C39.8398 53.797 38.8822 54.8831 39.0422 55.5219C39.1708 55.9692 53.9569 71.0111 73.0559 90.0459C99.6281 116.65 107.005 123.835 107.611 123.835C108.219 123.835 110.134 122.11 115.692 116.554C120.259 111.986 122.942 109.081 122.942 108.665C122.942 108.25 111.189 96.2741 89.0252 74.1094C61.973 47.0572 54.9145 40.1587 54.2756 40.1587C53.6683 40.1587 51.8161 41.8207 46.1638 47.473Z" fill="white"/>
<path d="M44.8545 73.0548C42.0119 75.9604 38.2118 77.2065 32.1436 77.2065C23.3286 77.238 15.4398 82.7316 11.2881 91.7381C10.1705 94.1976 8.92432 98.6681 8.92432 100.393C8.92432 101.575 9.91468 102.597 10.8408 102.341C11.1923 102.245 15.1197 100.073 19.5915 97.519C28.2779 92.5042 28.8852 92.2811 31.1532 93.3673C34.1873 94.8049 37.9232 100.745 38.2433 104.577C38.5305 108.09 38.5305 108.09 28.7895 113.68C23.5517 116.714 20.2618 118.822 20.103 119.205C19.6885 120.354 20.2631 121.09 22.1153 121.823C25.0536 123.036 27.4488 123.548 30.866 123.74C42.5235 124.41 51.6887 118.406 54.9143 108.026C55.3931 106.461 55.6804 104.289 55.9047 100.84C56.3192 93.7188 56.9908 91.7696 59.9606 88.6082L61.7486 86.756L54.084 79.0902L46.4509 71.4571L44.8545 73.0548Z" fill="white"/>
</svg>
