<svg width="126" height="126" viewBox="0 0 126 126" fill="none" xmlns="http://www.w3.org/2000/svg">
<path d="M102.165 42L106.312 32.8125L115.5 28.665C115.958 28.4562 116.347 28.1199 116.619 27.6964C116.892 27.2728 117.037 26.7798 117.037 26.2762C117.037 25.7726 116.892 25.2796 116.619 24.8561C116.347 24.4325 115.958 24.0963 115.5 23.8875L106.312 19.74L102.165 10.5C101.956 10.0417 101.62 9.65312 101.196 9.38066C100.773 9.10819 100.28 8.96332 99.7762 8.96332C99.2726 8.96332 98.7796 9.10819 98.356 9.38066C97.9325 9.65312 97.5963 10.0417 97.3875 10.5L93.24 19.6875L84 23.835C83.5417 24.0438 83.1531 24.38 82.8806 24.8036C82.6082 25.2271 82.4633 25.7201 82.4633 26.2237C82.4633 26.7273 82.6082 27.2203 82.8806 27.6439C83.1531 28.0674 83.5417 28.4037 84 28.6125L93.1875 32.76L97.335 42C98.28 44.0475 101.22 44.0475 102.165 42ZM60.375 49.875L52.0275 31.5C50.19 27.405 44.31 27.405 42.4725 31.5L34.125 49.875L15.75 58.2225C11.655 60.1125 11.655 65.94 15.75 67.7775L34.125 76.125L42.4725 94.5C44.3625 98.595 50.19 98.595 52.0275 94.5L60.375 76.125L78.75 67.7775C82.845 65.8875 82.845 60.06 78.75 58.2225L60.375 49.875ZM97.335 84L93.1875 93.1875L84 97.335C83.5417 97.5438 83.1531 97.88 82.8806 98.3036C82.6082 98.7271 82.4633 99.2201 82.4633 99.7237C82.4633 100.227 82.6082 100.72 82.8806 101.144C83.1531 101.567 83.5417 101.904 84 102.112L93.1875 106.26L97.335 115.5C97.5438 115.958 97.88 116.347 98.3035 116.619C98.7271 116.892 99.2201 117.037 99.7237 117.037C100.227 117.037 100.72 116.892 101.144 116.619C101.567 116.347 101.904 115.958 102.112 115.5L106.26 106.312L115.5 102.165C115.958 101.956 116.347 101.62 116.619 101.196C116.892 100.773 117.037 100.28 117.037 99.7762C117.037 99.2726 116.892 98.7796 116.619 98.3561C116.347 97.9325 115.958 97.5963 115.5 97.3875L106.312 93.24L102.165 84C101.95 83.541 101.609 83.1529 101.181 82.881C100.753 82.609 100.257 82.4646 99.75 82.4646C99.2431 82.4646 98.7468 82.609 98.3191 82.881C97.8914 83.1529 97.55 83.541 97.335 84V84Z" fill="white"/>
</svg>
