<svg width="34" height="34" viewBox="0 0 34 34" fill="none" xmlns="http://www.w3.org/2000/svg">
<path d="M1.0625 17C1.0625 20.1344 1.96562 23.0562 3.50625 25.5H30.4406C31.9812 23.0562 32.8844 20.1344 32.8844 17C32.8844 13.8656 31.9812 10.9437 30.4406 8.5H3.50625C1.96562 10.9437 1.0625 13.8656 1.0625 17Z" fill="#F9F9F9"/>
<path d="M30.4938 8.5C27.6782 4.0375 22.6845 1.0625 17.0001 1.0625C11.3157 1.0625 6.32197 4.0375 3.50635 8.5H30.4938ZM3.50635 25.5C6.32197 29.9625 11.3157 32.9375 17.0001 32.9375C22.6845 32.9375 27.6782 29.9625 30.4938 25.5H3.50635Z" fill="#ED4C5C"/>
<path d="M12.4844 23.9062C12.4844 23.9062 15.9375 21.6219 19.975 23.6406V22.7906C19.975 22.7906 16.575 20.5594 19.4437 20.2406C22.3125 19.9219 23.9062 21.4094 23.9062 21.4094V20.6656C23.9062 20.6656 19.0188 18.0625 23.2156 19.0719V18.3281C23.2156 18.3281 19.4438 17 21.7281 17H22.6844V16.5219C22.6844 16.5219 18.8062 15.9906 22.0469 15.7781V15.4062C22.0469 15.4062 16.2031 12.6969 20.5594 13.7594V13.2281C20.5594 13.2281 18.4344 12.8031 20.0812 12.5906C20.0812 12.5906 19.2312 11.475 17.85 11.475C16.4687 11.475 16.6812 10.0938 16.6812 10.0938L14.9281 11.9531C14.9281 11.9531 16.15 11.8469 14.1844 12.8563C14.1844 12.8563 15.8312 13.0156 12.1125 15.1938C12.1125 15.1938 13.4937 14.6625 13.4937 15.5656C13.4937 16.4687 11.05 17.6906 11.05 17.6906L11.2625 18.275C11.2625 18.275 12.9625 16.9469 12.8563 17.85C12.75 18.7531 10.0938 20.1344 10.0938 20.1344L10.3594 20.5594C10.3594 20.5594 12.5375 19.2844 12.5906 19.8156C12.5906 19.8156 12.9094 20.1875 10.7844 20.8781L11.05 21.3031C11.05 21.3031 14.2906 19.7094 15.1406 20.8781C15.9906 22.0469 12.4312 23.2687 12.4312 23.2687L12.4844 23.9062Z" fill="#6DA53D"/>
<path d="M15.8314 14.6093C16.0955 14.6093 16.3095 14.3953 16.3095 14.1312C16.3095 13.8671 16.0955 13.6531 15.8314 13.6531C15.5673 13.6531 15.3533 13.8671 15.3533 14.1312C15.3533 14.3953 15.5673 14.6093 15.8314 14.6093Z" fill="#F9F9F9"/>
<path d="M17.7438 15.4062C18.0078 15.4062 18.2219 15.1921 18.2219 14.9281C18.2219 14.664 18.0078 14.45 17.7438 14.45C17.4797 14.45 17.2656 14.664 17.2656 14.9281C17.2656 15.1921 17.4797 15.4062 17.7438 15.4062Z" fill="#F9F9F9"/>
<path d="M13.8126 17.9562C14.0767 17.9562 14.2907 17.7422 14.2907 17.4781C14.2907 17.2141 14.0767 17 13.8126 17C13.5485 17 13.3345 17.2141 13.3345 17.4781C13.3345 17.7422 13.5485 17.9562 13.8126 17.9562Z" fill="#F9F9F9"/>
<path d="M19.1251 18.4343C19.3892 18.4343 19.6032 18.2202 19.6032 17.9561C19.6032 17.6921 19.3892 17.478 19.1251 17.478C18.861 17.478 18.647 17.6921 18.647 17.9561C18.647 18.2202 18.861 18.4343 19.1251 18.4343Z" fill="#F9F9F9"/>
<path d="M20.6656 18.9125C20.9297 18.9125 21.1437 18.6985 21.1437 18.4344C21.1437 18.1704 20.9297 17.9563 20.6656 17.9563C20.4016 17.9563 20.1875 18.1704 20.1875 18.4344C20.1875 18.6985 20.4016 18.9125 20.6656 18.9125Z" fill="#F9F9F9"/>
<path d="M14.3971 15.778C14.6611 15.778 14.8752 15.564 14.8752 15.2999C14.8752 15.0358 14.6611 14.8218 14.3971 14.8218C14.133 14.8218 13.9189 15.0358 13.9189 15.2999C13.9189 15.564 14.133 15.778 14.3971 15.778Z" fill="#F9F9F9"/>
<path d="M17.1063 17.478C17.3704 17.478 17.5844 17.2639 17.5844 16.9999C17.5844 16.7358 17.3704 16.5217 17.1063 16.5217C16.8422 16.5217 16.6282 16.7358 16.6282 16.9999C16.6282 17.2639 16.8422 17.478 17.1063 17.478Z" fill="#F9F9F9"/>
</svg>
