<svg width="30" height="30" viewBox="0 0 30 30" fill="none" xmlns="http://www.w3.org/2000/svg">
<g id="moon">
<path id="moon_2" d="M26.1975 19.1563C26.4525 18.5488 25.7237 18.0313 25.1125 18.3013C23.8907 18.8376 22.5706 19.1134 21.2362 19.1113C16.005 19.1113 11.765 14.9563 11.765 9.83001C11.7631 8.09919 12.2548 6.40372 13.1825 4.94251C13.5375 4.38251 13.1113 3.60751 12.4613 3.77251C7.45 5.05126 3.75 9.51626 3.75 14.8275C3.75 21.1363 8.96875 26.25 15.4075 26.25C20.2825 26.25 24.4575 23.3188 26.1975 19.1563Z" fill="#FAF4F9"/>
<path id="star" d="M19.5141 3.87874C18.8516 3.43624 18.0616 4.22624 18.5029 4.88874L19.2904 6.06999C19.6098 6.54894 19.7803 7.11177 19.7803 7.68749C19.7803 8.2632 19.6098 8.82603 19.2904 9.30499L18.5029 10.4862C18.0616 11.1487 18.8529 11.9387 19.5154 11.4962L20.6954 10.7087C21.1743 10.3893 21.7372 10.2188 22.3129 10.2188C22.8886 10.2188 23.4514 10.3893 23.9304 10.7087L25.1116 11.4962C25.7741 11.9387 26.5641 11.1487 26.1216 10.4862L25.3341 9.30499C25.0147 8.82603 24.8442 8.2632 24.8442 7.68749C24.8442 7.11177 25.0147 6.54894 25.3341 6.06999L26.1216 4.88874C26.5641 4.22624 25.7741 3.43624 25.1104 3.87874L23.9304 4.66624C23.4514 4.9857 22.8886 5.15618 22.3129 5.15618C21.7372 5.15618 21.1743 4.9857 20.6954 4.66624L19.5141 3.87874V3.87874Z" fill="#FAF4F9"/>
</g>
</svg>
