<svg xmlns="http://www.w3.org/2000/svg" xmlns:xlink="http://www.w3.org/1999/xlink" xml:space="preserve" width="1000mm" height="1000mm" viewBox="0 0 1000 1000"><defs><linearGradient id="b"><stop offset="0" style="stop-color:#fff"/><stop offset="1" style="stop-color:#cba6f7;stop-opacity:1"/></linearGradient><linearGradient id="c"><stop offset="0" style="stop-color:#000"/><stop offset="1" style="stop-color:#000;stop-opacity:0"/></linearGradient><linearGradient id="d"><stop offset="0" style="stop-color:#b7b7b7"/><stop offset="1" style="stop-color:#000"/></linearGradient><linearGradient id="a"><stop offset="0" style="stop-color:#fff"/><stop offset=".499" style="stop-color:#d5e2ec"/><stop offset="1" style="stop-color:#d5e2ec"/></linearGradient><linearGradient id="i"><stop offset="0" style="stop-color:#3a0732;stop-opacity:1"/><stop offset=".762" style="stop-color:#d85f44;stop-opacity:1"/></linearGradient><linearGradient id="h"><stop offset="0" style="stop-color:#50fa7b;stop-opacity:1"/><stop offset=".744" style="stop-color:#3a0732;stop-opacity:1"/></linearGradient><linearGradient id="f"><stop offset=".144" style="stop-color:#d85f44;stop-opacity:1"/><stop offset="1" style="stop-color:#3a0732;stop-opacity:1"/></linearGradient><linearGradient id="e"><stop offset=".238" style="stop-color:#d85f44;stop-opacity:1"/><stop offset="1" style="stop-color:#3a0732;stop-opacity:1"/></linearGradient><linearGradient id="g"><stop offset="0" style="stop-color:#d85f44;stop-opacity:1"/><stop offset="1" style="stop-color:#3a0732;stop-opacity:1"/></linearGradient><linearGradient id="j"><stop offset="0" style="stop-color:#fff"/><stop offset="1" style="stop-color:#c8c093;stop-opacity:1"/></linearGradient><linearGradient xlink:href="#j" id="n" x1="601.535" x2="668.818" y1="434.948" y2="543.358" gradientUnits="userSpaceOnUse"/><linearGradient xlink:href="#j" id="o" x1="440.521" x2="486.955" y1="455.933" y2="535.305" gradientTransform="translate(-.51 6.118)" gradientUnits="userSpaceOnUse"/><linearGradient xlink:href="#j" id="p" x1="245.517" x2="305.392" y1="426.952" y2="531.49" gradientTransform="translate(-.382 2.677)" gradientUnits="userSpaceOnUse"/><linearGradient xlink:href="#j" id="q" x1="33.527" x2="159.241" y1="441.981" y2="581.413" gradientUnits="userSpaceOnUse"/><linearGradient xlink:href="#d" id="t" x1="174.281" x2="236.402" y1="164.167" y2="253.706" gradientTransform="matrix(3.7525 0 0 3.7525 -424.922 -686.03)" gradientUnits="userSpaceOnUse"/><linearGradient xlink:href="#c" id="r" x1="118.252" x2="291.871" y1="254.246" y2="254.246" gradientUnits="userSpaceOnUse"/><linearGradient xlink:href="#a" id="l" x1="224.557" x2="796.954" y1="216.314" y2="786.07" gradientTransform="matrix(.9701 0 0 .9701 14.947 14.947)" gradientUnits="userSpaceOnUse"/><filter id="k" width="1.031" height="1.054" x="-.015" y="-.027" style="color-interpolation-filters:sRGB"><feGaussianBlur result="blur" stdDeviation="6.42 6.42"/></filter><filter id="m" width="1.033" height="1.105" x="-.017" y="-.053" color-interpolation-filters="sRGB"><feGaussianBlur stdDeviation="4.667"/></filter><filter id="s" width="1.037" height="1.071" x="-.018" y="-.036" color-interpolation-filters="sRGB"><feGaussianBlur stdDeviation="1.309"/></filter></defs><g style="display:inline"><g style="display:inline;stroke-width:.350248"><g style="display:inline;stroke-width:.350248"><path d="M924.437 222.718c-75.633-3.316-151.87-6.527-227.504-9.843l-196.465 202.02-195.894-202.02-229.011 9.845 135.645 20.354L434.77 479.63 162.79 750.469 0 775.069s34.635 10.091 263.263 12.058l237.205-233.859 238.49 233.859C960.067 783.889 1000 775.068 1000 775.068L838.293 750.47 566.978 479.629l222.88-236.555Z" style="display:inline;fill:#000;fill-opacity:1;stroke:none;stroke-width:9.6463;stroke-linecap:square;stroke-miterlimit:10000;filter:url(#k)" transform="matrix(.9701 0 0 .9701 14.947 14.947)"/><path d="M911.749 231.007c-73.372-3.216-147.33-6.332-220.703-9.549l-190.592 195.98-190.038-195.98-222.165 9.551 131.59 19.746 216.88 229.483L172.87 742.982 14.947 766.845s33.6 9.79 255.394 11.697l230.113-226.867 231.36 226.867c214.5-3.14 253.239-11.697 253.239-11.697L828.18 742.982 564.975 480.238l216.217-229.483Z" style="display:inline;fill:url(#l);fill-opacity:1;stroke:none;stroke-width:9.35792;stroke-linecap:square;stroke-miterlimit:10000"/></g><g style="display:inline;opacity:.8;stroke-width:.350248;filter:url(#m)" transform="matrix(.73926 0 0 .74493 238.747 244.678)"><path d="m58.346 417.636 56.432 69.384 56.45-66.665 40.5 40.308-61.78 65.916 65.458 68.016-42.746 42.503-64.149-72.738-60.243 74.29L7.19 597.328l67.518-65.786-61.679-69.086ZM245.322 432.76s117.205-1.22 117.205-.743c0 .473-.462 46.742-.462 46.742l-56.151 2.88-.171 36.17 53.92.573.174 44.41-53.062 1.122-.041 75.283-62.11-.883s-.25-205.554.698-205.554zM542.34 431.38c3.791 18.023 7.58 36.047 11.372 54.07-36.273 12.229-88.713 15.006-91.249 68.095 6.672 52.011 70.355 34.371 98.684 36.77.473 17.234.438 33.7.911 50.935-126.766 16.69-161.696-45.13-163.833-67.52-12.5-100.83 88.584-130.205 144.114-142.35ZM597.268 428.94l116.39-.421-1.345 46.27-56.5.053.8 34.592 48.828-.686-.566 45.71-48.375.807.475 32.727 57.105.096.113 50.463-118.3-3.347z" style="stroke:#000;stroke-width:1.05074"/></g><g style="stroke-width:.350248"><path d="m597.268 428.94 116.39-.421-1.345 46.27-56.5.053.8 34.592 48.828-.686-.566 45.71-48.375.807.475 32.727 57.105.096.113 50.463-118.3-3.347z" style="fill:url(#n);stroke:#968b4d;stroke-width:1.05074;stroke-opacity:1" transform="matrix(.73926 0 0 .74493 234.311 241.326)"/><path d="M542.34 431.38c3.791 18.023 7.58 36.047 11.372 54.07-36.273 12.229-88.713 15.006-91.249 68.095 6.672 52.011 70.355 34.371 98.684 36.77.473 17.234.438 33.7.911 50.935-126.766 16.69-161.696-45.13-163.833-67.52-12.5-100.83 88.584-130.205 144.114-142.35Z" style="fill:url(#o);stroke:#968b4d;stroke-width:1.05074;stroke-opacity:1" transform="matrix(.73926 0 0 .74493 234.311 241.326)"/><path d="M245.322 432.76s117.205-1.22 117.205-.743c0 .473-.462 46.742-.462 46.742l-56.151 2.88-.171 36.17 53.92.573.174 44.41-53.062 1.122-.041 75.283-62.11-.883s-.25-205.554.698-205.554z" style="fill:url(#p);stroke:#968b4d;stroke-width:1.05074;stroke-opacity:1" transform="matrix(.73926 0 0 .74493 234.311 241.326)"/><path d="m58.346 417.636 56.432 69.384 56.45-66.665 40.5 40.308-61.78 65.916 65.458 68.016-42.746 42.503-64.149-72.738-60.243 74.29L7.19 597.328l67.518-65.786-61.679-69.086Z" style="fill:url(#q);stroke:#968b4d;stroke-width:1.05074;stroke-opacity:1" transform="matrix(.73926 0 0 .74493 234.311 241.326)"/></g></g><g style="display:inline;fill:url(#r);stroke:#000;stroke-width:.0939171" transform="matrix(2.77405 0 0 2.79533 -95.044 -294.113)"><path d="M120.811 210.769c-.915.5 7.298 5.882 22.688 12.218 15.39 6.336 36.667 22.377 35 24.97-5 7.04-7.942 15.481-5.907 29.905.367 2.54-7.542 6.95-6.968 10.782.48 2.915 8.838-2.896 9.75-1.75.558 2.057-4.467 12.474-2.438 13.218 1.484.441 14.523-12.401 15.281-12.187 21.514 6.504 49.52 1.612 50.063 1.406-.051-.113 20.12 9.492 21.875 8.344 4.427-4.794-8.387-11.551-6.25-14.25.937-1.413 15.62 5.303 16.344 3.469 1.052-3.175-6.817-9.838-8-11.813-1.03-1.82-1.233-4.754 1.406-6.594 2.64-1.84 29.632-12.166 28.5-20.156-1.957-14.518-34.26-15.465-34.781-16.687-.245-.574 1.448-20.76-7.97-17.032-5.797 2.158-1.093 15.025-.718 16.688.346 1.53-2.574 1.36-3.125.687-1.23-1.502-5.272-14.925-10.062-12.53-6.718 3.703-.41 15.28-1.75 15.655-2.49 1.391-2.35 4.795-4.344 7.563-3.29 4.715-27.917-2.206-35.875-2.688-5.826-.344-11.38 4.42-11.906 3.813-7.094-7.104-21.765-19.485-37.844-23.594-9.017-2.447-22.431-9.527-22.969-9.437zm164.219 13c-.537.231-2.705 11.396-1.656 11.906.929.695 2.535-11.257 1.687-11.875-.014-.016-.014-.039-.031-.031zm7.969 1.53c-1.219-.021-7.716 10.361-6.22 11.47.93.695 6.711-11.045 6.313-11.438a.136.136 0 0 0-.093-.031zm-31.5 12.657c1.539 0 2.78 1.404 2.78 3.156 0 1.753-1.241 3.188-2.78 3.188-1.54 0-2.782-1.435-2.782-3.188 0-1.752 1.242-3.156 2.782-3.156zm-6.25 1.906c1.184 5.111 3.016 6.726 8.562 6.563-7.059 6.473-11.333-4.604-8.562-6.563zm14.937 13.375c.44-.035.776.034.969.22 2.78 1.007-11.933 6.31-12.031 5.562-.148-.517 7.987-5.532 11.062-5.782zm1.813 3.375a.767.767 0 0 1 .406.094c2.625 2.608-8.31 8.39-8.188 8.188-.881-.533 5.498-8.104 7.782-8.282z" style="opacity:.8;fill:#000;fill-rule:evenodd;stroke:#000;stroke-width:.0939171;filter:url(#s)"/><path d="M118.946 209.57c-.915.5 7.297 5.882 22.687 12.218 15.391 6.336 36.667 22.377 35 24.969-4.999 7.041-7.941 15.482-5.906 29.906.367 2.54-7.543 6.95-6.969 10.781.48 2.915 8.838-2.896 9.75-1.75.558 2.057-4.466 12.475-2.437 13.22 1.484.44 14.523-12.402 15.28-12.188 21.515 6.504 49.521 1.612 50.063 1.406-.05-.113 20.12 9.492 21.875 8.344 4.427-4.794-8.387-11.551-6.25-14.25.937-1.413 15.621 5.302 16.344 3.468 1.052-3.175-6.817-9.837-8-11.812-1.029-1.821-1.233-4.754 1.406-6.594 2.64-1.84 29.632-12.166 28.5-20.156-1.957-14.518-34.26-15.466-34.78-16.688-.246-.574 1.447-20.76-7.97-17.03-5.798 2.157-1.093 15.024-.718 16.687.346 1.53-2.574 1.36-3.125.687-1.23-1.502-5.273-14.925-10.063-12.531-6.718 3.704-.41 15.281-1.75 15.656-2.489 1.391-2.349 4.795-4.344 7.563-3.29 4.715-27.917-2.206-35.875-2.688-5.826-.344-11.38 4.42-11.906 3.813-7.094-7.104-21.765-19.485-37.844-23.594-9.017-2.447-22.43-9.528-22.968-9.438zm164.218 13c-.537.231-2.704 11.396-1.656 11.906.93.695 2.536-11.257 1.688-11.875-.014-.016-.014-.039-.032-.032zm7.97 1.53c-1.22-.022-7.716 10.361-6.22 11.47.93.694 6.71-11.045 6.313-11.438a.136.136 0 0 0-.094-.031zm-31.5 12.657c1.538 0 2.78 1.404 2.78 3.156 0 1.753-1.242 3.188-2.78 3.188-1.54 0-2.782-1.435-2.782-3.188 0-1.752 1.242-3.156 2.781-3.156zm-6.25 1.906c1.183 5.111 3.016 6.726 8.562 6.563-7.06 6.473-11.334-4.604-8.563-6.563zm14.937 13.375c.439-.035.775.034.968.219 2.781 1.008-11.933 6.311-12.03 5.562-.149-.516 7.986-5.531 11.062-5.78zm1.812 3.375a.767.767 0 0 1 .406.094c2.625 2.608-8.31 8.39-8.187 8.187-.881-.532 5.498-8.104 7.781-8.28z" style="fill:#000;fill-rule:evenodd;stroke:#000;stroke-width:.0939171"/><path d="M21.406 100.375c-3.433 1.88 27.406 22.068 85.156 45.844 57.755 23.776 137.6 83.992 131.344 93.719-18.758 26.42-29.824 58.092-22.187 112.218 1.377 9.528-28.28 26.062-26.125 40.438 1.621 9.847 27.167-6.836 34.75-7.125-12.75-97.068 156.376-151.98 300.031-174.344a6.172 6.172 0 0 1 1.531-1.563c.104.447.207.85.313 1.282 4.64-.715 9.265-1.416 13.843-2.063 1.737-3.797 5.243-6.375 9.282-6.375 3.182 0 6.025 1.589 7.937 4.125 23.875-2.995 46.506-5.065 66.844-6.219-37.955-16.115-88.987-18.63-90.25-21.593-.92-2.154 5.431-77.9-29.906-63.906-21.757 8.097-4.095 56.353-2.688 62.593 1.299 5.745-9.682 5.116-11.75 2.594-4.615-5.636-19.775-56.015-37.75-47.031-25.209 13.899-1.534 57.343-6.562 58.75-9.34 5.22-8.827 17.988-16.313 28.375-12.345 17.693-104.762-8.254-134.625-10.063-21.862-1.29-42.682 16.563-44.656 14.281-26.62-26.657-81.664-73.112-142-88.53-33.836-9.183-84.2-35.745-86.219-35.407Z" style="fill:url(#t);stroke-width:.0939171" transform="matrix(.26649 0 0 .26649 113.237 182.82)"/></g></g></svg>