<svg xmlns="http://www.w3.org/2000/svg" xmlns:xlink="http://www.w3.org/1999/xlink" xml:space="preserve" width="1000mm" height="1000mm" viewBox="0 0 1000 1000"><defs><linearGradient id="b"><stop offset="0" style="stop-color:#fff"/><stop offset="1" style="stop-color:#cba6f7;stop-opacity:1"/></linearGradient><linearGradient id="c"><stop offset="0" style="stop-color:#000"/><stop offset="1" style="stop-color:#000;stop-opacity:0"/></linearGradient><linearGradient id="d"><stop offset="0" style="stop-color:#b7b7b7"/><stop offset="1" style="stop-color:#000"/></linearGradient><linearGradient id="a"><stop offset="0" style="stop-color:#fff"/><stop offset=".499" style="stop-color:#d5e2ec"/><stop offset="1" style="stop-color:#d5e2ec"/></linearGradient><linearGradient id="i"><stop offset="0" style="stop-color:#3a0732;stop-opacity:1"/><stop offset=".762" style="stop-color:#d85f44;stop-opacity:1"/></linearGradient><linearGradient id="h"><stop offset="0" style="stop-color:#50fa7b;stop-opacity:1"/><stop offset=".744" style="stop-color:#3a0732;stop-opacity:1"/></linearGradient><linearGradient id="f"><stop offset=".144" style="stop-color:#d85f44;stop-opacity:1"/><stop offset="1" style="stop-color:#3a0732;stop-opacity:1"/></linearGradient><linearGradient id="e"><stop offset=".238" style="stop-color:#d85f44;stop-opacity:1"/><stop offset="1" style="stop-color:#3a0732;stop-opacity:1"/></linearGradient><linearGradient id="g"><stop offset="0" style="stop-color:#d85f44;stop-opacity:1"/><stop offset="1" style="stop-color:#3a0732;stop-opacity:1"/></linearGradient><linearGradient xlink:href="#a" id="l" x1="224.557" x2="796.954" y1="216.314" y2="786.07" gradientTransform="matrix(.9701 0 0 .9701 14.947 14.947)" gradientUnits="userSpaceOnUse"/><linearGradient id="j"><stop offset="0" style="stop-color:#02bff7;stop-opacity:1"/><stop offset="1" style="stop-color:#10227c;stop-opacity:1"/></linearGradient><filter id="k" width="1.031" height="1.054" x="-.015" y="-.027" style="color-interpolation-filters:sRGB"><feGaussianBlur result="blur" stdDeviation="6.42 6.42"/></filter><filter id="m" width="1.1" height="1.081" x="-.05" y="-.041" style="color-interpolation-filters:sRGB"><feGaussianBlur result="blur" stdDeviation="2 2"/></filter><radialGradient xlink:href="#j" id="n" cx="48.105" cy="59.13" r="48.108" fx="48.105" fy="59.13" gradientTransform="matrix(4.19224 0 0 5.18051 298.33 193.676)" gradientUnits="userSpaceOnUse"/></defs><g style="display:inline"><path d="M924.437 222.718c-75.633-3.316-151.87-6.527-227.504-9.843l-196.465 202.02-195.894-202.02-229.011 9.845 135.645 20.354L434.77 479.63 162.79 750.469 0 775.069s34.635 10.091 263.263 12.058l237.205-233.859 238.49 233.859C960.067 783.889 1000 775.068 1000 775.068L838.293 750.47 566.978 479.629l222.88-236.555Z" style="display:inline;fill:#000;fill-opacity:1;stroke:none;stroke-width:9.6463;stroke-linecap:square;stroke-miterlimit:10000;filter:url(#k)" transform="matrix(.9701 0 0 .9701 14.947 14.947)"/><path d="M911.749 231.007c-73.372-3.216-147.33-6.332-220.703-9.549l-190.592 195.98-190.038-195.98-222.165 9.551 131.59 19.746 216.88 229.483L172.87 742.982 14.947 766.845s33.6 9.79 255.394 11.697l230.113-226.867 231.36 226.867c214.5-3.14 253.239-11.697 253.239-11.697L828.18 742.982 564.975 480.238l216.217-229.483Z" style="display:inline;fill:url(#l);fill-opacity:1;stroke:none;stroke-width:9.35792;stroke-linecap:square;stroke-miterlimit:10000"/><path d="M58.791 93.913c1.107 8.454-6.202 12.629-13.36 7.179-22.787-17.349 37.729-26.004 33.74-49.706-3.311-19.674-63.676-13.617-70.55 17.167-4.653 20.821 19.153 49.707 43.993 49.707 12.22 0 26.315-11.034 28.952-25.012 2.014-10.659-23.699-6.388-22.775.665ZM26.212 36.642c6.239-1.272 6.581-26.864-4.545-22.273-11.128 4.592-1.689 23.547 4.545 22.273ZM11.445 48.453c5.241-2.307.675-24.872-8.237-18.718-8.908 6.155 2.996 21.024 8.237 18.718Zm33.772-17.754c7.369.45 15.454-28.122 1.604-26.325-13.845 1.797-8.976 25.875-1.604 26.325ZM86.068 0C61.466 0 56.851 35.041 70.691 35.041 84.529 35.041 110.671 0 86.068 0Z" style="display:inline;fill:#021673;fill-opacity:1;filter:url(#m)" transform="matrix(4.19224 0 0 4.21481 298.332 250.778)"/><path d="M544.796 646.604c4.641 35.632-26 53.229-56.008 30.258-95.529-73.123 158.169-109.602 141.446-209.502-13.88-82.922-266.945-57.393-295.763 72.356-19.506 87.757 80.294 209.506 184.43 209.506 51.229 0 110.319-46.506 121.374-105.421 8.443-44.926-99.352-26.924-95.479 2.803zM408.217 405.217c26.156-5.361 27.59-113.227-19.054-93.876-46.65 19.354-7.08 99.246 19.054 93.876zm-61.907 49.781c21.972-9.723 2.83-104.83-34.531-78.892-37.345 25.942 12.56 88.612 34.531 78.892zm141.58-74.83c30.893 1.897 64.788-118.528 6.725-110.954-58.042 7.574-37.63 109.058-6.724 110.955zm171.258-129.39c-103.138 0-122.485 147.691-64.464 147.691 58.012 0 167.606-147.691 64.464-147.691z" style="display:inline;fill:url(#n);fill-opacity:1;stroke:#021673;stroke-width:1.05834;stroke-dasharray:none;stroke-opacity:1"/></g></svg>